<?xml version="1.0" encoding="utf-8"?><!-- Uploaded to: SVG Repo, www.svgrepo.com, Generator: SVG Repo Mixer Tools -->
<svg version="1.1" id="Uploaded to svgrepo.com" xmlns="http://www.w3.org/2000/svg" xmlns:xlink="http://www.w3.org/1999/xlink" 
	 width="800px" height="800px" viewBox="0 0 32 32" xml:space="preserve">
<style type="text/css">
	.feather_een{fill:#0B1719;}
</style>
<path class="feather_een" d="M15,9h-1V5h0.707L17,7.293V5h1v4h-0.707L15,6.707V9z M30,16c0,7.732-6.268,14-14,14S2,23.732,2,16
	S8.268,2,16,2S30,8.268,30,16z M29,16c0-7.168-5.832-13-13-13S3,8.832,3,16s5.832,13,13,13S29,23.168,29,16z M18.406,14.407
	l3.875,7.197c0.235,0.437-0.241,0.912-0.677,0.677l-7.197-3.875c-0.345-0.186-0.627-0.468-0.813-0.813l-3.875-7.197
	C9.484,9.96,9.96,9.484,10.396,9.719l7.197,3.875C17.938,13.78,18.22,14.062,18.406,14.407z M20.61,20.61l-3.227-5.993L11.39,11.39
	l3.227,5.993L20.61,20.61z M15.293,15.293c-0.391,0.391-0.391,1.024,0,1.414c0.391,0.391,1.024,0.391,1.414,0
	c0.391-0.391,0.391-1.024,0-1.414C16.317,14.902,15.683,14.902,15.293,15.293z"/>
</svg>