<?xml version="1.0" standalone="no"?>
<svg xmlns:xlink="http://www.w3.org/1999/xlink" id="wave" style="transform:rotate(0deg); transition: 0.3s" viewBox="0 0 1440 310" version="1.1" xmlns="http://www.w3.org/2000/svg"><defs><linearGradient id="sw-gradient-0" x1="0" x2="0" y1="1" y2="0"><stop stop-color="rgba(116.901, 80.507, 193.847, 1)" offset="0%"/><stop stop-color="rgba(216.615, 27.593, 172.061, 1)" offset="100%"/></linearGradient></defs><path style="transform:translate(0, 0px); opacity:1" fill="url(#sw-gradient-0)" d="M0,279L20,248C40,217,80,155,120,129.2C160,103,200,114,240,108.5C280,103,320,83,360,93C400,103,440,145,480,165.3C520,186,560,186,600,175.7C640,165,680,145,720,134.3C760,124,800,124,840,124C880,124,920,124,960,139.5C1000,155,1040,186,1080,170.5C1120,155,1160,93,1200,67.2C1240,41,1280,52,1320,87.8C1360,124,1400,186,1440,180.8C1480,176,1520,103,1560,62C1600,21,1640,10,1680,36.2C1720,62,1760,124,1800,149.8C1840,176,1880,165,1920,139.5C1960,114,2000,72,2040,56.8C2080,41,2120,52,2160,67.2C2200,83,2240,103,2280,118.8C2320,134,2360,145,2400,149.8C2440,155,2480,155,2520,165.3C2560,176,2600,196,2640,180.8C2680,165,2720,114,2760,93C2800,72,2840,83,2860,87.8L2880,93L2880,310L2860,310C2840,310,2800,310,2760,310C2720,310,2680,310,2640,310C2600,310,2560,310,2520,310C2480,310,2440,310,2400,310C2360,310,2320,310,2280,310C2240,310,2200,310,2160,310C2120,310,2080,310,2040,310C2000,310,1960,310,1920,310C1880,310,1840,310,1800,310C1760,310,1720,310,1680,310C1640,310,1600,310,1560,310C1520,310,1480,310,1440,310C1400,310,1360,310,1320,310C1280,310,1240,310,1200,310C1160,310,1120,310,1080,310C1040,310,1000,310,960,310C920,310,880,310,840,310C800,310,760,310,720,310C680,310,640,310,600,310C560,310,520,310,480,310C440,310,400,310,360,310C320,310,280,310,240,310C200,310,160,310,120,310C80,310,40,310,20,310L0,310Z"/></svg>