<?xml version="1.0" standalone="no"?>
<svg xmlns:xlink="http://www.w3.org/1999/xlink" id="wave" style="transform:rotate(0deg); transition: 0.3s" viewBox="0 0 1440 260" version="1.1" xmlns="http://www.w3.org/2000/svg"><defs><linearGradient id="sw-gradient-0" x1="0" x2="0" y1="1" y2="0"><stop stop-color="rgba(243, 106, 62, 1)" offset="0%"/><stop stop-color="rgba(255, 179, 11, 1)" offset="100%"/></linearGradient></defs><path style="transform:translate(0, 0px); opacity:1" fill="url(#sw-gradient-0)" d="M0,26L34.3,60.7C68.6,95,137,165,206,169C274.3,173,343,113,411,95.3C480,78,549,104,617,95.3C685.7,87,754,43,823,34.7C891.4,26,960,52,1029,56.3C1097.1,61,1166,43,1234,69.3C1302.9,95,1371,165,1440,169C1508.6,173,1577,113,1646,73.7C1714.3,35,1783,17,1851,47.7C1920,78,1989,156,2057,182C2125.7,208,2194,182,2263,160.3C2331.4,139,2400,121,2469,117C2537.1,113,2606,121,2674,138.7C2742.9,156,2811,182,2880,164.7C2948.6,147,3017,87,3086,60.7C3154.3,35,3223,43,3291,69.3C3360,95,3429,139,3497,147.3C3565.7,156,3634,130,3703,130C3771.4,130,3840,156,3909,151.7C3977.1,147,4046,113,4114,86.7C4182.9,61,4251,43,4320,52C4388.6,61,4457,95,4526,117C4594.3,139,4663,147,4731,143C4800,139,4869,121,4903,112.7L4937.1,104L4937.1,260L4902.9,260C4868.6,260,4800,260,4731,260C4662.9,260,4594,260,4526,260C4457.1,260,4389,260,4320,260C4251.4,260,4183,260,4114,260C4045.7,260,3977,260,3909,260C3840,260,3771,260,3703,260C3634.3,260,3566,260,3497,260C3428.6,260,3360,260,3291,260C3222.9,260,3154,260,3086,260C3017.1,260,2949,260,2880,260C2811.4,260,2743,260,2674,260C2605.7,260,2537,260,2469,260C2400,260,2331,260,2263,260C2194.3,260,2126,260,2057,260C1988.6,260,1920,260,1851,260C1782.9,260,1714,260,1646,260C1577.1,260,1509,260,1440,260C1371.4,260,1303,260,1234,260C1165.7,260,1097,260,1029,260C960,260,891,260,823,260C754.3,260,686,260,617,260C548.6,260,480,260,411,260C342.9,260,274,260,206,260C137.1,260,69,260,34,260L0,260Z"/></svg>