<?xml version="1.0" standalone="no"?>
<svg xmlns:xlink="http://www.w3.org/1999/xlink" id="wave" style="transform:rotate(0deg); transition: 0.3s" viewBox="0 0 1440 310" version="1.1" xmlns="http://www.w3.org/2000/svg"><defs><linearGradient id="sw-gradient-0" x1="0" x2="0" y1="1" y2="0"><stop stop-color="rgba(31.259, 72.681, 193.847, 1)" offset="0%"/><stop stop-color="rgba(14.139, 237.106, 237.106, 1)" offset="100%"/></linearGradient></defs><path style="transform:translate(0, 0px); opacity:1" fill="url(#sw-gradient-0)" d="M0,0L15,0C30,0,60,0,90,15.5C120,31,150,62,180,82.7C210,103,240,114,270,134.3C300,155,330,186,360,170.5C390,155,420,93,450,93C480,93,510,155,540,196.3C570,238,600,258,630,268.7C660,279,690,279,720,268.7C750,258,780,238,810,206.7C840,176,870,134,900,139.5C930,145,960,196,990,191.2C1020,186,1050,124,1080,113.7C1110,103,1140,145,1170,180.8C1200,217,1230,248,1260,253.2C1290,258,1320,238,1350,237.7C1380,238,1410,258,1440,222.2C1470,186,1500,93,1530,93C1560,93,1590,186,1620,201.5C1650,217,1680,155,1710,118.8C1740,83,1770,72,1800,67.2C1830,62,1860,62,1890,82.7C1920,103,1950,145,1980,175.7C2010,207,2040,227,2070,196.3C2100,165,2130,83,2145,41.3L2160,0L2160,310L2145,310C2130,310,2100,310,2070,310C2040,310,2010,310,1980,310C1950,310,1920,310,1890,310C1860,310,1830,310,1800,310C1770,310,1740,310,1710,310C1680,310,1650,310,1620,310C1590,310,1560,310,1530,310C1500,310,1470,310,1440,310C1410,310,1380,310,1350,310C1320,310,1290,310,1260,310C1230,310,1200,310,1170,310C1140,310,1110,310,1080,310C1050,310,1020,310,990,310C960,310,930,310,900,310C870,310,840,310,810,310C780,310,750,310,720,310C690,310,660,310,630,310C600,310,570,310,540,310C510,310,480,310,450,310C420,310,390,310,360,310C330,310,300,310,270,310C240,310,210,310,180,310C150,310,120,310,90,310C60,310,30,310,15,310L0,310Z"/></svg>